<svg xmlns="http://www.w3.org/2000/svg" width="66" height="66" viewBox="0 0 66 66"><g transform="translate(69.009)"><g transform="translate(-69.009)"><path d="M114.821,143.113H136.2a9.334,9.334,0,0,0,9.321-9.307v-22.2A9.325,9.325,0,0,0,136.2,102.3H114.821a9.325,9.325,0,0,0-9.321,9.307v22.2A9.317,9.317,0,0,0,114.821,143.113Zm24.241-36.883a2.947,2.947,0,1,1-2.952,2.947A2.943,2.943,0,0,1,139.062,106.23Zm-13.55,3.332a13.151,13.151,0,1,1-13.164,13.144A13.179,13.179,0,0,1,125.512,109.562Z" transform="translate(-92.512 -89.706)" fill="#fff"/><path d="M196.2,204.591a8.4,8.4,0,1,0-8.4-8.4A8.406,8.406,0,0,0,196.2,204.591Z" transform="translate(-163.196 -163.196)" fill="#fff"/><path d="M51.988,0H14.012A14.018,14.018,0,0,0,0,14.012V51.988A14.018,14.018,0,0,0,14.012,66H51.988A14.009,14.009,0,0,0,66,51.988V14.012A14.018,14.018,0,0,0,51.988,0ZM8.624,22.223A14.018,14.018,0,0,1,22.636,8.211H43.364A14.018,14.018,0,0,1,57.376,22.223V43.776A14.018,14.018,0,0,1,43.364,57.788H22.636A14.009,14.009,0,0,1,8.624,43.776V22.223Z" fill="#fff"/></g></g></svg>