<svg xmlns="http://www.w3.org/2000/svg" width="80" height="63.25" viewBox="0 0 80 63.25">
  <g id="logo" transform="translate(422.748 16.22)">
    <g id="グループ_2" data-name="グループ 2" transform="translate(-422.748 -16.22)">
      <path id="パス_1" data-name="パス 1" d="M275.276,148.275l-9.192,5.307,4.25,2.454,7.067-4.08ZM225.66,176.921l2.125,3.68,37.45-21.622-4.25-2.454Z" transform="translate(-225.66 -148.275)" fill="#fff"/>
      <rect id="長方形_2" data-name="長方形 2" width="4.25" height="57.292" transform="translate(28.259 3.68) rotate(-60)" fill="#fff"/>
      <g id="グループ_1" data-name="グループ 1" transform="translate(11.263 26.863)">
        <path id="パス_2" data-name="パス 2" d="M348.436,345.235H350.5l.233-6.666h-1.662Z" transform="translate(-330.373 -319.978)" fill="#fff"/>
        <path id="パス_3" data-name="パス 3" d="M326.408,262.066v-1.328h-6.849v1.328h-12.8v-1.328H296.41V262h-12.8v-1.261H276.8v1.328h-3.984v4.25H276.8v30.81h23.9v-30.81h1.8v30.81h23.9v-30.81h3.7v-4.25ZM294.3,287.674h-3.574l-.15,1.43h-1.363l-.1-1.43H286.5l-.133-1.679h2.66l-.382-6.666h-1.629l-2.045,8.179H283.2l-1.879-11.055h2.56l.316,7.764,1-7.581h3.291l-.083-1.563h3.508l-.15,1.563h3.923Zm25.2-2.431h-3.753l-.044-1.478h2.468l-.044-3.236h-5.541l.177,7.581h-1.3l-1.212-7.581h-1.581l-.384-2.423,1.6.015-.414-2.542h3l.074,2.542,3.546.015v-2.276h2.689l-.236,2.29h1.98Z" transform="translate(-272.812 -260.738)" fill="#fff"/>
      </g>
    </g>
  </g>
</svg>
