<svg xmlns="http://www.w3.org/2000/svg" width="66" height="66" viewBox="0 0 66 66"><g transform="translate(-1.961 16)"><g transform="translate(1.961 -16)"><path d="M33,0A33,33,0,1,0,66,33,33,33,0,0,0,33,0Zm.748,28.707h.026a6.642,6.642,0,0,1-.18-1.611,7.075,7.075,0,0,1,7.064-7.064,6.986,6.986,0,0,1,5.156,2.243,13.772,13.772,0,0,0,3.725-1.315c.245-.129.5-.245.748-.387a7.09,7.09,0,0,1-2.269,3.287,7.46,7.46,0,0,1-.838.58h.039c-.013.013-.026.013-.039.026a13.69,13.69,0,0,0,3.313-.812c.245-.09.477-.168.722-.271a14.2,14.2,0,0,1-3.506,3.622c.026.309.026.606.026.915,0,9.333-7.1,20.1-20.1,20.1a19.9,19.9,0,0,1-10.828-3.171,14.49,14.49,0,0,0,1.689.1,14.143,14.143,0,0,0,6.664-1.663c.039-.026.09-.039.129-.064.129-.064.245-.142.374-.219a16.317,16.317,0,0,0,1.6-1.057h-.026c.013,0,.013-.013.026-.013a7.016,7.016,0,0,1-6.587-4.9,7.336,7.336,0,0,0,1.315.116,8.053,8.053,0,0,0,1.366-.142l.5-.077c-.013,0-.026-.013-.039-.013a.047.047,0,0,0,.039-.013,7.07,7.07,0,0,1-5.672-6.935v-.077a7,7,0,0,0,2.475.812,6.855,6.855,0,0,0,.722.077c-.013,0-.013-.013-.026-.026H21.4a7.059,7.059,0,0,1-3.145-5.878,6.966,6.966,0,0,1,.735-3.094,4.946,4.946,0,0,1,.232-.451,19.988,19.988,0,0,0,14.334,7.348.994.994,0,0,0,.193.026Z" fill="#fff"/></g></g></svg>